<svg width="172" height="189" viewBox="0 0 172 189" fill="none" xmlns="http://www.w3.org/2000/svg">
<g clip-path="url(#clip0_342_2313)">
<path d="M34.6496 153.851C37.0485 153.851 38.9932 151.901 38.9932 149.496C38.9932 147.09 37.0485 145.141 34.6496 145.141C32.2507 145.141 30.306 147.09 30.306 149.496C30.306 151.901 32.2507 153.851 34.6496 153.851Z" fill="#F0F0F0"/>
<path d="M26.6107 154.631C28.2935 154.631 29.6577 153.263 29.6577 151.576C29.6577 149.888 28.2935 148.521 26.6107 148.521C24.9279 148.521 23.5637 149.888 23.5637 151.576C23.5637 153.263 24.9279 154.631 26.6107 154.631Z" fill="#F0F0F0"/>
<path d="M32.8719 18.0972C34.8013 18.0972 36.3653 16.529 36.3653 14.5945C36.3653 12.66 34.8013 11.0918 32.8719 11.0918C30.9425 11.0918 29.3784 12.66 29.3784 14.5945C29.3784 16.529 30.9425 18.0972 32.8719 18.0972Z" fill="#CCCCCC"/>
<path d="M158.636 58.9614C160.566 58.9614 162.13 57.3932 162.13 55.4587C162.13 53.5243 160.566 51.9561 158.636 51.9561C156.707 51.9561 155.143 53.5243 155.143 55.4587C155.143 57.3932 156.707 58.9614 158.636 58.9614Z" fill="#CCCCCC"/>
<path d="M38.4032 80.8535H32.5808V86.6913H38.4032V80.8535Z" fill="#CCCCCC"/>
<path d="M2.5953 37.9457H2.01306V0H39.2766V0.58378H2.5953V37.9457Z" fill="#CCCCCC"/>
<path d="M172 37.9457H171.418V0.58378H134.737V0H172V37.9457Z" fill="#CCCCCC"/>
<path d="M2.5953 70.0537H2.01306V107.999H39.2766V107.416H2.5953V70.0537Z" fill="#CCCCCC"/>
<path d="M172 70.0537H171.418V107.416H134.737V107.999H172V70.0537Z" fill="#CCCCCC"/>
<path d="M53.2505 17.8057H12.4935V18.3894H53.2505V17.8057Z" fill="#CCCCCC"/>
<path d="M24.1382 12.5508H23.556V17.9507H24.1382V12.5508Z" fill="#CCCCCC"/>
<path d="M41.8967 12.5508H41.3145V17.9507H41.8967V12.5508Z" fill="#CCCCCC"/>
<path d="M163.294 58.9619H122.537V59.5457H163.294V58.9619Z" fill="#CCCCCC"/>
<path d="M134.182 53.708H133.6V59.108H134.182V53.708Z" fill="#CCCCCC"/>
<path d="M151.941 53.708H151.358V59.108H151.941V53.708Z" fill="#CCCCCC"/>
<path d="M55.8706 86.3994H15.1136V86.9832H55.8706V86.3994Z" fill="#CCCCCC"/>
<path d="M26.7583 81.1455H26.176V86.5455H26.7583V81.1455Z" fill="#CCCCCC"/>
<path d="M44.5168 81.1455H43.9346V86.5455H44.5168V81.1455Z" fill="#CCCCCC"/>
<path d="M86.407 122.137C95.4108 122.137 102.71 120.438 102.71 118.342C102.71 116.247 95.4108 114.548 86.407 114.548C77.4032 114.548 70.1042 116.247 70.1042 118.342C70.1042 120.438 77.4032 122.137 86.407 122.137Z" fill="#3F3D56"/>
<path d="M99.486 156.144L83.7653 157.31L83.8082 157.892L99.5289 156.726L99.486 156.144Z" fill="#CACACA"/>
<path d="M73.4467 154.135L73.1661 154.646L78.9886 157.857L79.2691 157.346L73.4467 154.135Z" fill="#CACACA"/>
<path d="M89.9003 152.056H84.6602V152.639H89.9003V152.056Z" fill="#CACACA"/>
<path d="M70.9768 188.562L70.3958 188.522L74.7626 121.68L75.3436 121.719L70.9768 188.562Z" fill="#CACACA"/>
<path d="M92.5208 188.557L89.6096 126.968L90.1912 126.939L93.1024 188.528L92.5208 188.557Z" fill="#CACACA"/>
<path d="M98.342 121.384L97.7617 121.432L103.293 188.566L103.873 188.518L98.342 121.384Z" fill="#CACACA"/>
<path d="M80.0022 188.549L79.42 188.535L81.1667 126.946L81.749 126.96L80.0022 188.549Z" fill="#CACACA"/>
<path d="M77.2158 149.941L73.3492 152.237L62.6755 138.376L68.3826 134.987L77.2158 149.941Z" fill="#BEBEBE"/>
<path d="M80.4221 153.114L67.9541 160.518L67.8607 160.36C67.0985 159.069 66.8787 157.528 67.2497 156.075C67.6207 154.622 68.5521 153.376 69.8391 152.612L69.8394 152.612L77.4544 148.09L80.4221 153.114Z" fill="#2F2E41"/>
<path d="M95.8889 149.941L99.7556 152.237L110.429 138.376L104.722 134.987L95.8889 149.941Z" fill="#BEBEBE"/>
<path d="M95.6504 148.09L103.265 152.612L103.266 152.612C104.553 153.376 105.484 154.622 105.855 156.075C106.226 157.528 106.006 159.069 105.244 160.36L105.151 160.518L92.6827 153.114L95.6504 148.09Z" fill="#2F2E41"/>
<path d="M98.5463 97.0537C98.5463 97.0537 85.9305 105.963 73.6505 97.9233L73.4584 103.528C73.4584 103.528 47.1543 114.713 51.4723 123.451C55.7903 132.189 64.8639 141.256 64.8639 141.256L69.8129 137.17L64.2816 123.159L79.3273 116.768L92.444 116.835L110.734 124.257L102 137.392L109.697 139.797C109.697 139.797 128.037 122.867 124.107 118.051C120.957 114.191 102.1 105.535 102.1 105.535L98.5463 97.0537Z" fill="#2F2E41"/>
<path d="M102.937 64.3693L92.0171 60.74L89.3181 56.8994H81.4578L79.129 60.8008L69.0037 64.3693C68.4516 64.5275 67.9773 64.8846 67.6718 65.372C67.3663 65.8594 67.2511 66.4428 67.3484 67.0101L71.8508 104.186L79.1288 103.602C79.1288 103.602 88.9344 111.273 94.8494 102.434L95.1652 97.9769L101.254 103.894L104.592 67.0101C104.689 66.4428 104.574 65.8594 104.269 65.372C103.963 64.8846 103.489 64.5275 102.937 64.3693Z" fill="#2F2E41"/>
<path d="M94.553 39.1601C91.3246 33.6906 84.9372 33.4357 84.9372 33.4357C84.9372 33.4357 78.7132 32.6376 74.7205 40.9678C70.999 48.7323 65.8628 53.602 73.8936 55.4195L75.3442 50.8927L76.2425 55.7566C77.386 55.839 78.533 55.8587 79.6786 55.8154C88.279 55.537 96.4695 55.8969 96.2058 52.8026C95.8552 48.6891 97.6595 44.4229 94.553 39.1601Z" fill="#2F2E41"/>
<path d="M85.6791 55.4169C90.3418 55.4169 94.1216 51.6271 94.1216 46.9521C94.1216 42.2771 90.3418 38.4873 85.6791 38.4873C81.0164 38.4873 77.2366 42.2771 77.2366 46.9521C77.2366 51.6271 81.0164 55.4169 85.6791 55.4169Z" fill="#BEBEBE"/>
<path d="M93.4167 38.3405L87.1064 35.0264L78.3923 36.3822L76.5894 44.3663L81.0773 44.1932L82.3311 41.26V44.145L84.4022 44.065L85.6039 39.3951L86.3553 44.3663L93.7175 44.2156L93.4167 38.3405Z" fill="#2F2E41"/>
<path opacity="0.2" d="M72.486 72.3887L79.0363 98.0724C79.0363 98.0724 75.9795 75.5995 72.486 72.3887Z" fill="black"/>
<path opacity="0.2" d="M92.0308 98.3643L98.581 72.6807C95.0875 75.8915 92.0308 98.3643 92.0308 98.3643Z" fill="black"/>
<path d="M93.5562 120.802C93.9091 120.615 94.2168 120.353 94.4578 120.034C94.6987 119.715 94.8669 119.347 94.9506 118.956C95.0343 118.565 95.0315 118.16 94.9422 117.77C94.853 117.38 94.6796 117.014 94.4341 116.699L100.381 100.392L95.8289 98.0684L90.4316 116.324C89.9303 116.772 89.6104 117.39 89.5327 118.059C89.455 118.728 89.6248 119.402 90.0099 119.954C90.3951 120.506 90.9688 120.898 91.6224 121.054C92.276 121.21 92.964 121.121 93.5562 120.802Z" fill="#BEBEBE"/>
<path d="M99.3021 70.7842L92.6675 99.711C92.6036 100.01 92.659 100.322 92.8221 100.58C92.9851 100.839 93.2427 101.023 93.5395 101.093L99.9289 102.016C100.086 102.053 100.249 102.057 100.408 102.027C100.567 101.997 100.718 101.935 100.851 101.844C100.985 101.753 101.098 101.635 101.183 101.497C101.269 101.36 101.325 101.206 101.348 101.046L103.292 70.9106L99.3021 70.7842Z" fill="#2F2E41"/>
<path d="M78.3842 121.385C78.0313 121.198 77.7235 120.936 77.4826 120.617C77.2417 120.298 77.0734 119.93 76.9897 119.539C76.906 119.148 76.9089 118.743 76.9981 118.353C77.0874 117.963 77.2608 117.597 77.5062 117.282L71.5597 100.975L76.1115 98.6514L81.5088 116.907C82.0101 117.355 82.3299 117.973 82.4076 118.642C82.4853 119.311 82.3156 119.985 81.9304 120.537C81.5453 121.089 80.9715 121.481 80.318 121.637C79.6644 121.793 78.9763 121.704 78.3842 121.385Z" fill="#BEBEBE"/>
<path d="M72.6384 71.3682L79.2729 100.295C79.3369 100.594 79.2814 100.906 79.1184 101.164C78.9554 101.423 78.6978 101.607 78.401 101.677L72.0116 102.6C71.8544 102.637 71.6912 102.641 71.5324 102.611C71.3735 102.581 71.2226 102.519 71.0891 102.428C70.9557 102.337 70.8426 102.219 70.7571 102.081C70.6716 101.944 70.6155 101.79 70.5924 101.63L68.0662 71.4946L72.6384 71.3682Z" fill="#2F2E41"/>
<path d="M170.015 188.834H0.291121C0.213911 188.834 0.139859 188.803 0.0852628 188.748C0.030667 188.694 0 188.619 0 188.542C0 188.464 0.030667 188.39 0.0852628 188.335C0.139859 188.281 0.213911 188.25 0.291121 188.25H170.015C170.092 188.25 170.166 188.281 170.221 188.335C170.275 188.39 170.306 188.464 170.306 188.542C170.306 188.619 170.275 188.694 170.221 188.748C170.166 188.803 170.092 188.834 170.015 188.834Z" fill="#E4E4E4"/>
<path d="M146.03 158.432L146.247 158.121C149.984 160.752 152.71 166.603 154.349 175.513C155.099 179.675 155.549 183.885 155.695 188.112L155.316 188.119C155.312 187.884 154.759 164.577 146.03 158.432Z" fill="#E4E4E4"/>
<path d="M146.598 175.248L146.816 174.937C150.711 177.679 150.948 187.599 150.956 188.02L150.577 188.028C150.575 187.927 150.336 177.879 146.598 175.248Z" fill="#E4E4E4"/>
<path d="M143.864 158.276C144.911 158.276 145.759 157.425 145.759 156.375C145.759 155.326 144.911 154.475 143.864 154.475C142.817 154.475 141.968 155.326 141.968 156.375C141.968 157.425 142.817 158.276 143.864 158.276Z" fill="#E4E4E4"/>
<path d="M144.812 174.811C145.859 174.811 146.707 173.96 146.707 172.91C146.707 171.861 145.859 171.01 144.812 171.01C143.765 171.01 142.916 171.861 142.916 172.91C142.916 173.96 143.765 174.811 144.812 174.811Z" fill="#E4E4E4"/>
<path d="M153.323 155.666C153.925 157.021 154.124 158.522 153.895 159.988C153.666 161.454 153.02 162.822 152.033 163.928C151.431 162.573 151.232 161.072 151.461 159.606C151.69 158.14 152.336 156.772 153.323 155.666Z" fill="#E4E4E4"/>
<path d="M141.72 162.622C143.156 162.263 144.665 162.328 146.064 162.81C147.464 163.291 148.695 164.168 149.609 165.335C148.173 165.694 146.665 165.628 145.265 165.147C143.865 164.665 142.634 163.789 141.72 162.622Z" fill="#E4E4E4"/>
<path d="M142.71 177.851C143.717 177.6 144.774 177.646 145.755 177.983C146.736 178.321 147.599 178.935 148.24 179.753C147.233 180.004 146.176 179.959 145.195 179.621C144.214 179.284 143.351 178.669 142.71 177.851Z" fill="#E4E4E4"/>
</g>
<defs>
<clipPath id="clip0_342_2313">
<rect width="172" height="188.834" fill="white"/>
</clipPath>
</defs>
</svg>
